<svg id="レイヤー_1" data-name="レイヤー 1" xmlns="http://www.w3.org/2000/svg" viewBox="0 0 84.55 92.12"><defs><style>.cls-1{fill:#2bb2c5;}.cls-2{fill:#562721;}.cls-3{fill:#37b7c9;}.cls-4{fill:#70453f;}.cls-5{font-size:9px;fill:#333;font-family:HiraKakuProN-W3-83pv-RKSJ-H, Hiragino Kaku Gothic ProN;letter-spacing:0.14em;}.cls-10,.cls-6,.cls-7,.cls-8,.cls-9{font-family:YuMin-Medium-83pv-RKSJ-H, YuMincho;}.cls-6{letter-spacing:0.06em;}.cls-7{letter-spacing:0.04em;}.cls-8{letter-spacing:0.06em;}.cls-9{letter-spacing:0.02em;}.cls-10{letter-spacing:0.09em;}</style></defs><path class="cls-1" d="M105.36,56.9l-4.82-5.29L96,46c-3.79-4.37-3.59-8.71.69-12.61,2.94-2.67,5.95-5.26,9.08-8l1.56,1.74,1.14,1.14c1.75,1.81,3.54,3.57,5.23,5.42,3.23,3.54,3.49,7.49.86,11.45m-14.5-6,5.43,5.91,5.39-5.88-5.18-5.49Z" transform="translate(-63.28 -1.22)"/><path class="cls-2" d="M110.31,50.54c-.09,2.3.34,4.93.25,7.24a23.83,23.83,0,0,0,.24,3.13c.45,1.69.86,3.39,1.36,5.06.84,2.78,1.77,5.54,2.59,8.33a18.55,18.55,0,0,1,.35,2.8H96a7.13,7.13,0,0,1,.15-2.47c3.13-6.84,4.12-14,4.16-21.48a10.12,10.12,0,0,0-.07-1.85c1.51,1.66,3.28,3.63,5.08,5.6" transform="translate(-63.28 -1.22)"/><path class="cls-3" d="M101.64,21c-3.52,2.66-6.78,5.25-10.19,7.66a7.87,7.87,0,0,1-11-1.37c-2.44-2.84-4.67-5.86-7.21-9.09,4.3-2.23,8.35-4.62,12.64-6.46a7.61,7.61,0,0,1,8.49,1.62C96.85,15.73,99.12,18.33,101.64,21ZM89.09,15.62,83,19.27l4.31,4.93,5.81-4Z" transform="translate(-63.28 -1.22)"/><path class="cls-3" d="M109.15,22.21c2.76-2.36,4.76-4.2,6.89-5.86s4.41-1.62,6.88.45,4.9,4.5,7.58,7c-1.83,2.44-3.42,4.88-5.34,7-1.77,2-4.88,1.59-7.31-.62C115.07,27.67,112.31,25.12,109.15,22.21Zm7.51.37,4.74,4.12,3-3.46-4.32-3.69Z" transform="translate(-63.28 -1.22)"/><path class="cls-3" d="M106.24,17.79c-2.81-2.68-5.38-5-7.74-7.44-2-2.14-1.62-4.08,1-5.54,2.18-1.22,4.4-2.36,6.69-3.59,2.22,2.11,4.39,4.06,6.42,6.15a3.75,3.75,0,0,1-.15,5.77C110.47,14.79,108.32,16.25,106.24,17.79ZM102.31,8l4,4,3.42-2.52L106.08,6Z" transform="translate(-63.28 -1.22)"/><path class="cls-3" d="M108.43,28.27l-1.14-1.14Z" transform="translate(-63.28 -1.22)"/><path class="cls-4" d="M104.81,66c-.11.12-.21.23,0,0-.21.17-.1.08,0,0Z" transform="translate(-63.28 -1.22)"/><path class="cls-4" d="M96.35,74.21a49.71,49.71,0,0,1,3.48-3.63,49.7,49.7,0,0,0,3.62-3.49,88.24,88.24,0,0,1,7.22-7l0,0a88.33,88.33,0,0,1-7.1,7.12c-1.25,1.11-2.4,2.33-3.54,3.56a49.77,49.77,0,0,1-3.68,3.43Z" transform="translate(-63.28 -1.22)"/><path class="cls-4" d="M106.31,55.69l4.38,4.43" transform="translate(-63.28 -1.22)"/><path class="cls-4" d="M106.32,55.68a7.69,7.69,0,0,1,1.16,1,6.75,6.75,0,0,0,1.07,1.13,14,14,0,0,1,2.15,2.26l0,0A13.94,13.94,0,0,1,108.45,58a7.15,7.15,0,0,0-1.12-1.08,8.15,8.15,0,0,1-1-1.17Z" transform="translate(-63.28 -1.22)"/><text class="cls-5" transform="translate(8.98 84.69)">ー<tspan class="cls-6" x="10.13" y="0">パ</tspan><tspan class="cls-7" x="19.64" y="0">ウ</tspan><tspan class="cls-8" x="29.03" y="0">ロ</tspan><tspan class="cls-9" x="38.54" y="0">ニ</tspan><tspan class="cls-10" x="47.75" y="0">ア</tspan><tspan x="57.59" y="0">ー</tspan></text></svg>